<?xml version="1.0" encoding="UTF-8" standalone="no"?>
<svg
   xmlns:dc="http://purl.org/dc/elements/1.1/"
   xmlns:cc="http://creativecommons.org/ns#"
   xmlns:rdf="http://www.w3.org/1999/02/22-rdf-syntax-ns#"
   xmlns:svg="http://www.w3.org/2000/svg"
   xmlns="http://www.w3.org/2000/svg"
   xmlns:sodipodi="http://sodipodi.sourceforge.net/DTD/sodipodi-0.dtd"
   xmlns:inkscape="http://www.inkscape.org/namespaces/inkscape"
   width="16mm"
   height="16mm"
   viewBox="0 0 16 16"
   version="1.1"
   id="svg3297"
   inkscape:export-filename="/Users/michellelaybolt/Desktop/cloud.png"
   inkscape:export-xdpi="96"
   inkscape:export-ydpi="96"
   inkscape:version="1.0.2 (e86c8708, 2021-01-15)"
   sodipodi:docname="clear-sky-night.svg">
  <defs
     id="defs3291">
    <clipPath
       clipPathUnits="userSpaceOnUse"
       id="clipPath6662">
      <path
         id="path6664"
         style="fill:#ff0000;fill-opacity:1;fill-rule:nonzero;stroke:none;stroke-width:0.264583"
         d="m -10.72936,12.892847 v 5.235339 c 0.06663,-0.05021 0.160122,-0.103091 0.263033,-0.157096 -0.01644,-0.06424 -0.0134,-0.12923 -0.0093,-0.193787 -0.0028,0.0059 -0.0049,0.01307 -0.01033,0.01292 -0.03449,-9.53e-4 -0.02417,-0.06473 -0.03256,-0.09819 -0.0182,-0.07253 -0.03126,-0.146008 -0.04703,-0.219108 -0.09418,-0.437621 -0.01462,-0.0617 -0.05529,-0.293005 0.0031,0.01156 0.004,0.02384 0.01033,0.03204 0.168033,0.218525 0.10897,0.161808 0.344682,0.252698 0.134868,0.05201 0.210727,0.05878 0.252181,0.03927 -0.11643,-0.0628 -0.260345,-0.06655 -0.389124,-0.102836 0.09464,0.01625 0.189066,0.03233 0.283704,0.04858 0.05588,0.0096 0.100193,0.02063 0.135392,0.03256 0.1081656,-0.193362 -0.785671,-1.156987 -0.295072,-1.087272 0.04054,0.0058 0.09059,0.01888 0.151412,0.03979 0.07556,0.02598 0.1604338,0.03362 0.2268593,0.07803 0.2845448,0.190253 0.2920386,0.45378 0.3534666,0.751892 0.00759,0.04102 0.012565,0.08253 0.022738,0.12299 0.016116,0.06409 0.044638,0.125039 0.055811,0.190169 0.01543,0.08993 0.011806,0.182332 0.023254,0.272852 0.00341,0.0269 0.00127,-0.04971 5.292e-4,-0.08165 -8.467e-4,-0.006 -0.00177,-0.01206 -0.00259,-0.01809 -6.35e-4,-0.0048 0.00249,0.0091 0.00259,0.01395 2.91e-5,0.0014 -3.78e-5,0.0025 0,0.0041 0.00241,0.0172 0.00482,0.03448 0.00723,0.05168 0.026887,0.161748 0.039932,0.214878 0.045992,0.395842 0.00196,0.05828 -0.0041,0.116396 -0.0062,0.174666 -0.00167,0.04607 0.00938,0.141538 -0.02222,0.112138 0.023783,0.06122 0.050592,0.121131 0.071313,0.183451 0.036716,0.110427 0.024474,0.266826 0.021704,0.375688 -0.00228,0.08978 -0.00536,0.128568 -0.00775,0.183968 0.1089302,0.01223 0.2276043,0.02615 0.3105755,0.03049 0.055046,0.0029 0.1102416,0 0.1653646,0 0.7325876,0 0.9404514,0.510472 0.6299356,0.815971 0.3079586,0.02288 1.0696247,0.07507 1.1890748,0.08165 0.047176,0.0026 0.094346,0 0.1415934,0 0.2794275,0 0.4800478,0.07795 0.6077148,0.189653 h 0.053743 c 0.5425432,0 0.7959403,0.288569 0.7663614,0.561723 h 2.7719136 v -3.279901 c -0.011348,0.0022 -0.016547,0.0062 -0.028939,0.0083 -0.012864,0.0022 -0.025818,-0.0011 -0.038757,-0.0021 -0.00161,0.0051 -0.00248,0.01041 -0.00413,0.0155 -0.012891,0.03967 -0.083574,0.0011 -0.1250569,0.0057 -0.1038174,0.01152 -0.070354,0.02007 -0.1627808,0.03462 -0.1458727,0.02292 -0.1337672,0.01845 -0.2645833,0.02015 -0.053848,-0.336707 -0.044006,-0.689555 -0.1612305,-1.009757 -0.00419,-0.01144 -0.011449,-0.01515 -0.019637,-0.0155 -0.00273,0.0089 -0.00366,0.01612 -0.00672,0.02532 -0.00596,0.01791 -0.009,0.0034 -0.011369,-0.01912 -0.026739,0.01336 -0.0584,0.04611 -0.0894,0.07906 -0.02741,0.07295 -0.054236,0.146363 -0.084749,0.218075 -0.00607,0.01426 -0.012909,-0.02896 -0.013436,-0.04444 -9.525e-4,-0.02801 -5.979e-4,-0.02643 -0.00155,-0.04703 -0.021825,0.04994 -0.032988,0.104482 -0.056327,0.157613 -0.0032,0.0073 -0.00476,-0.01535 -0.00413,-0.02325 0.00725,-0.08149 0.018555,-0.162633 0.027905,-0.243913 0.020897,-0.0526 0.041632,-0.105016 0.062528,-0.157612 -0.040823,0.113193 -0.036753,0.120538 -0.029972,0.267167 0.013515,-0.03092 0.030131,-0.06032 0.058911,-0.08527 0.01097,-0.0095 0.026955,-0.02658 0.040824,-0.04134 0.027423,-0.07298 0.055775,-0.145712 0.082165,-0.219108 0.00411,-0.02907 0.012176,-0.08791 0.032039,-0.119372 0.00103,-0.02136 0.00222,-0.04315 0.00827,-0.06356 -7.91e-5,-0.0021 -0.00114,-0.0047 -0.00103,-0.0067 -0.00479,-0.01173 -0.00106,-0.02141 0.011886,-0.02842 0.00296,-0.0041 0.00613,-0.008 0.010335,-0.01137 0.00274,-0.0057 0.00761,-0.01271 0.010852,-0.0186 -0.00324,-0.01625 -0.0052,-0.0311 0.00723,-0.03204 9.525e-4,-7.3e-5 0.00214,-4.5e-4 0.0031,-5.29e-4 1.458e-4,0.05727 -0.00283,-0.03265 -0.00259,-0.07441 7.938e-4,-0.08838 0.013904,-0.132365 0.047542,-0.201022 0.00122,-0.05858 0.019132,-0.122615 0.058394,-0.238228 -0.00124,0.02828 9.631e-4,0.07113 0.00568,0.113688 0.010261,-0.01903 0.0092,-0.0184 0.021704,-0.04186 0.00413,-0.0077 0.016706,-0.01956 0.024805,-0.02997 -0.00681,-0.01 -0.00821,-0.04778 -0.010335,-0.08113 -0.00556,-0.0041 -0.010995,-0.0081 -0.016536,-0.0124 -0.00501,0.0083 -0.010151,0.01665 -0.014469,0.02532 -8.996e-4,-0.0013 -0.00131,9.79e-4 -0.00207,5.29e-4 0.00262,-0.0077 0.00341,-0.01094 0.0062,-0.01912 8.996e-4,-0.0026 0.00372,-0.0079 0.00517,-0.01137 -0.1026771,-0.08132 -0.2011904,-0.20084 -0.2842203,-0.366902 -0.023625,-0.04725 -0.04879,-0.09409 -0.070797,-0.142111 -0.00101,-0.0022 -0.027149,-0.06887 -0.047025,-0.117305 -0.2005862,-0.05574 -0.404109,-0.246995 -0.5121135,-0.603064 -0.00933,-0.03077 -0.015512,-0.06234 -0.023255,-0.09353 -0.089175,-0.01262 -0.1743194,-0.05965 -0.2480468,-0.133326 -0.2697401,-0.02207 -0.5364896,-0.05995 -0.8061524,-0.0863 h -0.320394 c -0.077958,0 -0.2120733,0.07476 -0.2340941,5.29e-4 -0.2743514,9.79e-4 -0.2930239,-0.03883 -0.1524455,-0.519865 -0.1072367,-0.366913 -0.1195612,-0.475726 0.00103,-0.506946 0.00156,-0.01148 0.00132,-0.01435 0.00465,-0.03824 -0.00127,0.01413 6.14e-5,0.02466 -5.292e-4,0.03772 0.037307,-0.0091 0.083796,-0.01263 0.1472779,-0.0124 0.00539,-0.01877 0.017743,-0.028 0.034623,-0.03152 0.050644,-0.01056 0.1408736,0.03152 0.1994709,0.03152 h 0.1410769 c 0.053881,-0.07153 0.1069046,-0.137761 0.1581298,-0.195337 -0.00511,-0.01587 -0.011517,-0.03327 -0.01602,-0.04857 z m 7.2620893,3.446818 c -0.00138,0.0029 -0.00442,0.0065 -0.00568,0.0093 0.00588,-0.0027 0.011788,-0.0052 0.020154,-0.0072 -3.175e-4,-0.0029 -9.419e-4,-0.0061 -0.00155,-0.0093 -0.00432,0.0024 -0.00942,0.0044 -0.012919,0.0072 z m -0.00568,0.0093 c -0.0014,6.35e-4 -0.00341,0.0014 -0.00465,0.0021 -0.00439,0.0061 -0.00728,0.01297 -0.00878,0.02067 0.00238,-0.0067 0.010366,-0.01588 0.013436,-0.02274 z m -0.016537,0.03049 c 3.44e-4,8.47e-4 0.00105,0.0017 0.00155,0.0026 8.466e-4,-0.0027 1.505e-4,-0.0056 0.00103,-0.0083 -3.44e-4,0.0022 -0.00242,0.0034 -0.00259,0.0057 z m 0.00155,0.0026 c -4.234e-4,0.0013 2.29e-5,0.0028 -5.16e-4,0.0041 4.234e-4,0.01119 0.00431,0.02453 0.00982,0.03876 0.00119,-0.0014 0.00243,-0.0027 0.00362,-0.0041 0.00204,-0.0055 0.00416,-0.01102 0.0062,-0.01654 -0.00957,-0.0083 -0.015704,-0.01558 -0.01912,-0.02222 z m 0.012919,0.03876 c -9.26e-4,0.0026 -0.00164,0.0052 -0.00258,0.0078 0.00458,0.0111 0.012935,0.0247 0.020671,0.03772 0.00151,-0.01752 0.00299,-0.03165 0.00413,-0.04754 -3.175e-4,-7.94e-4 -1.178e-4,-0.0018 -5.16e-4,-0.0026 -0.00387,-0.0028 -0.00709,-0.0051 -0.010335,-0.0078 -0.00369,0.0042 -0.00774,0.0081 -0.011369,0.0124 z m -0.00258,0.0078 c -5.557e-4,-0.0014 -5.133e-4,-0.0023 -0.00103,-0.0036 -0.00479,0.0057 -0.010292,0.01075 -0.014986,0.01654 -0.0014,0.0017 -0.0018,0.0062 -0.0031,0.0083 -6.879e-4,0.01398 -0.00494,0.0274 -0.00413,0.04289 0.00773,-0.02137 0.015435,-0.04275 0.023255,-0.06408 z m -0.023254,0.06408 c -0.00923,0.02552 -0.018722,0.05094 -0.027905,0.07648 -5.821e-4,0.0042 -0.0021,0.01363 -0.00259,0.01602 0.00423,0.02911 0.00613,0.08891 0.00982,0.124023 0.00649,-0.0032 0.012801,-0.0064 0.018087,-0.0062 0.00713,-0.02323 0.012983,-0.04502 0.018087,-0.06614 -0.00687,-0.05853 -0.013304,-0.105072 -0.015503,-0.144178 z m 0.7348388,1.159619 c 0.00426,-0.01343 0.00683,-0.02731 0.010852,-0.04082 -0.046979,0.009 -0.09207,0.01351 -0.1348754,0.01343 -2.101e-4,0.0039 -8.308e-4,0.0065 -0.00103,0.01034 0.041653,0.0048 0.083471,0.01484 0.125057,0.01705 z m 0.010852,-0.04082 c 0.018709,-0.0036 0.037668,-0.0077 0.056844,-0.0124 v -0.0186 c -0.012536,-0.01158 -0.02517,-0.02353 -0.037724,-0.03824 -0.00622,0.02312 -0.01228,0.0463 -0.01912,0.06925 z m -0.8381907,-4.718586 c 0.025125,0.03318 0.050576,0.06715 0.078548,0.10542 -0.015057,-0.0538 -0.022445,-0.08303 -0.028939,-0.10542 z m 0.091467,0 c 9.45e-5,0.02963 0.00234,0.05659 -0.00155,0.09664 -6.615e-4,0.007 -0.0016,0.01071 -0.00207,0.02067 0.01959,0.02699 0.033176,0.04252 0.05426,0.07286 0.00817,0.01175 0.00419,0.0455 0.00103,0.07596 0.010232,0.01682 0.022005,0.03274 0.031523,0.05013 0.058066,0.04114 0.1271284,0.09472 0.1824178,0.149345 0.088068,-0.06642 0.185194,-0.09951 0.280603,-0.0987 0.09225,7.94e-4 0.1812452,0.03313 0.2573486,0.09147 v -0.45837 z m 0.3260783,1.596285 c 0.00354,0.03496 0.0065,0.06954 0.0062,0.101803 0.1064906,0.03865 0.2875971,0.07764 0.2242757,0.02687 -0.069054,-0.05536 -0.1484736,-0.09408 -0.2304767,-0.128674 z m -0.086816,1.330668 c -0.00365,0.0024 -0.00669,0.0019 -0.00982,0.0026 -0.023805,0.02397 -0.044456,0.04988 -0.062528,0.07752 0.00807,0.06508 0.020759,0.121313 0.032556,0.08578 0.017904,-0.05387 0.029795,-0.109838 0.039791,-0.165881 z m -0.1224731,0.344682 c 4.763e-4,0.0064 -9.54e-5,0.01082 5.159e-4,0.01757 4.763e-4,0.0021 8.097e-4,0.0029 0.00155,0.0062 4.498e-4,-5.29e-4 0.00105,-2.16e-4 0.00155,-0.0016 -0.00148,-0.0086 -0.00228,-0.01433 -0.00362,-0.02222 z m 0.00413,0.152962 c -2.58e-4,2.64e-4 -1.119e-4,10e-4 -5.159e-4,10e-4 5.556e-4,-2.91e-4 10e-4,-10e-4 0.00155,-10e-4 -3.175e-4,3.4e-5 -7.249e-4,-3.6e-5 -0.00103,0 z m -0.052193,0.126607 c 0.00465,0.02937 0.014636,0.05895 0.024288,0.08837 0.033703,0.04292 0.082102,0.09553 0.1415934,0.155029 0.051914,-0.0068 0.1143307,-0.0218 0.1167887,-0.02222 0.011261,-0.0019 0.017275,-0.0024 0.027905,-0.0041 -0.1069274,-0.06907 -0.2206769,-0.133436 -0.3105754,-0.217041 z m 0.073381,0.227377 c 0.012507,0.0306 0.025495,0.06079 0.036173,0.09198 0.011173,0.0043 0.029252,0.01543 0.042375,0.0217 -0.0054,-0.03111 -0.00883,-0.06291 -0.015503,-0.09353 -6.614e-4,-2.18e-4 -0.00141,-1.41e-4 -0.00207,-5.29e-4 -0.00524,4e-6 -0.014618,0.0027 -0.018603,0.0021 -0.00547,-9e-4 0.00822,-0.002 0.016536,-0.0031 -0.019661,-0.0063 -0.03971,-0.01332 -0.058911,-0.0186 z m 0.058911,0.0186 c 7.144e-4,2.26e-4 0.00136,0.001 0.00207,0.001 4.498e-4,0 0.00105,-5.02e-4 0.00155,-5.29e-4 -7.17e-5,-3.17e-4 7.25e-5,-0.001 0,-0.001 -0.00119,2.32e-4 -0.00183,1.53e-4 -0.00362,5.3e-4 z m 0.051676,0.01705 c 0.021691,0.02128 0.052508,0.04888 0.077515,0.07235 0.01016,-0.01138 0.022519,-0.0223 0.03359,-0.03359 -0.037483,-0.01396 -0.074127,-0.02593 -0.111105,-0.03876 z m -7.4801636,3.074232 v 0.03256 c 0.0032,-0.0097 0.0067,-0.02044 0.0098,-0.02945 -0.0032,-0.0012 -0.0068,-0.0014 -0.0098,-0.0031 z m 0,0.14211 v 1.002006 h 1.37511 c -0.022762,-0.02233 -0.039178,-0.04694 -0.043925,-0.07596 -0.00148,-0.0023 -0.00265,-0.0049 -0.00414,-0.0072 -0.064706,-0.04792 -0.253178,-0.19898 -0.2790529,-0.257348 -0.00228,-0.0032 -0.00583,-0.0053 -0.00775,-0.0088 -0.045819,-0.08235 -0.063683,-0.116676 -0.08475,-0.157097 -0.00169,8.6e-5 -0.00349,4.77e-4 -0.00517,5.3e-4 -0.00782,2.32e-4 -0.015034,-0.0034 -0.022738,-0.0041 -0.074156,0.01772 -0.1498324,0.01513 -0.2222081,-0.01034 -0.179408,-0.0097 -0.308516,-0.198971 -0.356568,-0.379305 -0.01448,-0.01178 -0.02872,-0.0239 -0.04392,-0.03462 -0.0074,-0.0049 0.0206,0.0178 0.02997,0.02739 0.0014,0.0014 -0.0041,-6.88e-4 -0.0057,-0.0021 -0.0047,-0.0031 -0.02315,-0.01535 -0.03307,-0.0217 -0.02038,0.0061 -0.05271,-0.02585 -0.07803,-0.03359 -0.02963,-0.0091 -0.07144,-0.01977 -0.112138,-0.03049 -0.04256,7.68e-4 -0.07427,-0.003 -0.105936,-0.0072 z m 1.0872722,0.556039 c -0.010303,0.01748 -0.021788,0.03409 -0.029972,0.05323 -0.00303,0.0071 -9.525e-4,0.01259 -0.00206,0.01912 0.015867,-0.02153 0.02527,-0.037 0.038241,-0.05581 -0.00222,-0.0054 -0.00415,-0.01102 -0.0062,-0.01654 z m 0.094051,0.167432 c -0.00391,0.0042 -0.00799,0.0082 -0.011885,0.0124 0.00143,3.96e-4 0.00269,0.0011 0.00414,0.0016 0.00371,-0.0034 0.00726,-0.0069 0.010853,-0.01034 -9.79e-4,-0.0012 -0.00212,-0.0024 -0.0031,-0.0036 z m -0.00775,0.01395 c -0.00761,0.0069 -0.014581,0.01436 -0.02222,0.02119 0.044798,0.03974 0.084594,0.06354 0.1214396,0.07545 -0.00586,-0.01094 -0.00871,-0.01759 -0.013436,-0.02687 -0.00437,-0.0039 -0.00971,-0.0068 -0.013951,-0.01085 -0.017634,-0.01697 -0.03242,-0.03591 -0.048059,-0.05426 -0.00786,-0.0014 -0.016216,-0.0027 -0.02377,-0.0047 z m 0.28267,0.258899 -0.00672,0.0057 h 0.022738 c -0.00661,-0.0031 -0.00876,-0.0021 -0.016021,-0.0057 z" />
    </clipPath>
  </defs>
  <sodipodi:namedview
     id="base"
     pagecolor="#747474"
     bordercolor="#ffffff"
     borderopacity="1"
     inkscape:pageopacity="0"
     inkscape:pageshadow="2"
     inkscape:zoom="5.6"
     inkscape:cx="26.759702"
     inkscape:cy="44.558625"
     inkscape:document-units="mm"
     inkscape:current-layer="layer1"
     inkscape:document-rotation="0"
     showgrid="false"
     inkscape:pagecheckerboard="true"
     inkscape:window-width="1252"
     inkscape:window-height="1014"
     inkscape:window-x="0"
     inkscape:window-y="25"
     inkscape:window-maximized="0"
     inkscape:snap-others="false"
     inkscape:snap-nodes="false"
     inkscape:snap-global="false" />
  <metadata
     id="metadata3294">
    <rdf:RDF>
      <cc:Work
         rdf:about="">
        <dc:format>image/svg+xml</dc:format>
        <dc:type
           rdf:resource="http://purl.org/dc/dcmitype/StillImage" />
        <dc:title></dc:title>
      </cc:Work>
    </rdf:RDF>
  </metadata>
  <g
     inkscape:label="Layer 1"
     inkscape:groupmode="layer"
     id="layer1">
    <path
       d="m 11.551155,7.8734446 c 0.01193,-0.1220663 0.01684,-0.2462506 0.01684,-0.373235 0,-1.6304455 -0.935893,-3.0398975 -2.2983393,-3.7246286 0.2799259,0.5605536 0.4384806,1.1947718 0.4384806,1.8647701 0,2.2962347 -1.86477,4.1617065 -4.1638112,4.1617065 -0.6706997,0 -1.3021116,-0.158559 -1.8626651,-0.439183 0.6826264,1.3652544 2.0941829,2.3011464 3.7253304,2.3011464 0.1487329,0 0.2974653,-0.007 0.4461979,-0.02384"
       style="fill:none;stroke:#ffffff;stroke-width:0.379549;stroke-linecap:round;stroke-linejoin:round;stroke-miterlimit:10;stroke-dasharray:none;stroke-opacity:1"
       id="path3830" />
    <path
       d="m -2.8995362,17.058145 c 0.01155,-0.118587 0.01642,-0.239245 0.01642,-0.362616 0,-1.584055 -0.909264,-2.953404 -2.235671,-3.618652 0.274688,0.544603 0.426685,1.160778 0.426685,1.811711 0,2.230901 -1.8096668,4.043294 -4.0460178,4.043294 -0.6488905,0 -1.264381,-0.154048 -1.80694,-0.426687 0.663204,1.326409 2.0345953,2.235671 3.616607,2.235671 0.147227,0 0.291726,-0.0067 0.433501,-0.02317"
       style="fill:none;stroke:#ffffff;stroke-width:0.36875;stroke-linecap:round;stroke-linejoin:round;stroke-miterlimit:10;stroke-dasharray:none;stroke-opacity:1"
       id="path4058"
       clip-path="url(#clipPath6662)"
       transform="translate(16.283838,-7.2781288)" />
  </g>
</svg>
