<?xml version="1.0" encoding="UTF-8" standalone="no"?>
<svg
   xmlns:dc="http://purl.org/dc/elements/1.1/"
   xmlns:cc="http://creativecommons.org/ns#"
   xmlns:rdf="http://www.w3.org/1999/02/22-rdf-syntax-ns#"
   xmlns:svg="http://www.w3.org/2000/svg"
   xmlns="http://www.w3.org/2000/svg"
   xmlns:sodipodi="http://sodipodi.sourceforge.net/DTD/sodipodi-0.dtd"
   xmlns:inkscape="http://www.inkscape.org/namespaces/inkscape"
   width="16mm"
   height="16mm"
   viewBox="0 0 16 16"
   version="1.1"
   id="svg3297"
   inkscape:export-filename="/Users/michellelaybolt/Desktop/cloud.png"
   inkscape:export-xdpi="96"
   inkscape:export-ydpi="96"
   inkscape:version="1.0.2 (e86c8708, 2021-01-15)"
   sodipodi:docname="partly cloudy.svg">
  <defs
     id="defs3291" />
  <sodipodi:namedview
     id="base"
     pagecolor="#747474"
     bordercolor="#ffffff"
     borderopacity="1"
     inkscape:pageopacity="0"
     inkscape:pageshadow="2"
     inkscape:zoom="2.8"
     inkscape:cx="57.447976"
     inkscape:cy="56.555118"
     inkscape:document-units="mm"
     inkscape:current-layer="layer1"
     inkscape:document-rotation="0"
     showgrid="false"
     inkscape:pagecheckerboard="true"
     inkscape:window-width="1252"
     inkscape:window-height="1014"
     inkscape:window-x="0"
     inkscape:window-y="25"
     inkscape:window-maximized="0" />
  <metadata
     id="metadata3294">
    <rdf:RDF>
      <cc:Work
         rdf:about="">
        <dc:format>image/svg+xml</dc:format>
        <dc:type
           rdf:resource="http://purl.org/dc/dcmitype/StillImage" />
        <dc:title></dc:title>
      </cc:Work>
    </rdf:RDF>
  </metadata>
  <g
     inkscape:label="Layer 1"
     inkscape:groupmode="layer"
     id="layer1">
    <path
       d="m 10.354027,9.0751743 c -0.142169,0 -0.278342,0.02187 -0.4046363,0.06385 0.0014,-0.02222 0.0039,-0.04304 0.0039,-0.06385 0,-0.5909031 -0.479425,-1.0689171 -1.068916,-1.0689171 -0.10795,0 -0.212372,0.01587 -0.311503,0.04657 -0.105481,-1.026231 -0.972255,-1.825272 -2.0263552,-1.825272 -1.105959,0 -2.004484,0.881239 -2.033764,1.979789 -0.01235,0 -0.02328,-0.0014 -0.03563,-0.0014 -0.958497,0 -1.735666,0.7771691 -1.735666,1.7370771 0,0.9588497 0.777169,1.7360197 1.735666,1.7360197 h 5.8769255 c 0.718256,0 1.30175,-0.583495 1.30175,-1.302103 0,-0.7193137 -0.583494,-1.3017497 -1.30175,-1.3017497 z"
       style="fill:none;stroke:#ffffff;stroke-width:0.190853;stroke-linecap:butt;stroke-linejoin:miter;stroke-miterlimit:10;stroke-dasharray:none;stroke-opacity:1"
       id="path3506" />
    <path
       d="m 11.480586,11.027976 c 0.665692,-0.05891 1.187803,-0.617714 1.187803,-1.2982217 0,-0.718256 -0.583495,-1.3017501 -1.303161,-1.3017501 -0.140759,0 -0.276931,0.02328 -0.403225,0.0635 0,-0.02081 0.0025,-0.04163 0.0025,-0.0635 0,-0.589845 -0.478014,-1.068917 -1.0678583,-1.068917 -0.107597,0 -0.213078,0.01693 -0.31115,0.04763 -0.106892,-1.025878 -0.973314,-1.825272 -2.026356,-1.825272 -0.6226522,0 -1.1793362,0.2794 -1.5532802,0.719667"
       style="fill:none;stroke:#ffffff;stroke-width:0.190853;stroke-linecap:butt;stroke-linejoin:miter;stroke-miterlimit:10;stroke-dasharray:none;stroke-opacity:1"
       id="path3510" />
    <path
       d="m 9.0374247,6.2176392 c 0.210961,-0.237772 0.478014,-0.430389 0.794456,-0.554214 1.0664473,-0.420158 2.2725943,0.104422 2.6931053,1.171928 0.267406,0.67945 0.152047,1.41605 -0.243769,1.9688531"
       style="fill:none;stroke:#ffffff;stroke-width:0.190853;stroke-linecap:butt;stroke-linejoin:miter;stroke-miterlimit:10;stroke-dasharray:none;stroke-opacity:1"
       id="path3514" />
    <path
       d="m 13.31207,8.0025192 0.913342,0.136172"
       style="fill:none;stroke:#ffffff;stroke-width:0.190853;stroke-linecap:butt;stroke-linejoin:miter;stroke-miterlimit:10;stroke-dasharray:none;stroke-opacity:1"
       id="path3518" />
    <path
       d="M 10.245618,4.6591977 9.9073041,3.7998307"
       style="fill:none;stroke:#ffffff;stroke-width:0.190853;stroke-linecap:butt;stroke-linejoin:miter;stroke-miterlimit:10;stroke-dasharray:none;stroke-opacity:1"
       id="path3522" />
    <path
       d="m 12.304393,5.4441392 0.575028,-0.723194"
       style="fill:none;stroke:#ffffff;stroke-width:0.190853;stroke-linecap:butt;stroke-linejoin:miter;stroke-miterlimit:10;stroke-dasharray:none;stroke-opacity:1"
       id="path3526" />
  </g>
</svg>
