<?xml version="1.0" encoding="UTF-8" standalone="no"?>
<svg
   xmlns:dc="http://purl.org/dc/elements/1.1/"
   xmlns:cc="http://creativecommons.org/ns#"
   xmlns:rdf="http://www.w3.org/1999/02/22-rdf-syntax-ns#"
   xmlns:svg="http://www.w3.org/2000/svg"
   xmlns="http://www.w3.org/2000/svg"
   xmlns:sodipodi="http://sodipodi.sourceforge.net/DTD/sodipodi-0.dtd"
   xmlns:inkscape="http://www.inkscape.org/namespaces/inkscape"
   width="16mm"
   height="16mm"
   viewBox="0 0 16 16"
   version="1.1"
   id="svg3297"
   inkscape:export-filename="/Users/michellelaybolt/Desktop/cloud.png"
   inkscape:export-xdpi="96"
   inkscape:export-ydpi="96"
   inkscape:version="1.0.2 (e86c8708, 2021-01-15)"
   sodipodi:docname="few-clouds-night.svg">
  <defs
     id="defs3291" />
  <sodipodi:namedview
     id="base"
     pagecolor="#747474"
     bordercolor="#ffffff"
     borderopacity="1"
     inkscape:pageopacity="0"
     inkscape:pageshadow="2"
     inkscape:zoom="2.8"
     inkscape:cx="57.447976"
     inkscape:cy="56.555118"
     inkscape:document-units="mm"
     inkscape:current-layer="layer1"
     inkscape:document-rotation="0"
     showgrid="false"
     inkscape:pagecheckerboard="true"
     inkscape:window-width="1252"
     inkscape:window-height="1014"
     inkscape:window-x="0"
     inkscape:window-y="25"
     inkscape:window-maximized="0" />
  <metadata
     id="metadata3294">
    <rdf:RDF>
      <cc:Work
         rdf:about="">
        <dc:format>image/svg+xml</dc:format>
        <dc:type
           rdf:resource="http://purl.org/dc/dcmitype/StillImage" />
        <dc:title></dc:title>
      </cc:Work>
    </rdf:RDF>
  </metadata>
  <g
     inkscape:label="Layer 1"
     inkscape:groupmode="layer"
     id="layer1">
    <path
       d="m 6.0082951,6.6355441 c 0.006,-0.06138 0.00847,-0.123825 0.00847,-0.187678 0,-0.818797 -0.4706056,-1.5285859 -1.1560528,-1.872897 0.1411111,0.2818695 0.2208389,0.6004278 0.2208389,0.9376834 0,1.1560526 -0.9376833,2.0926776 -2.0937361,2.0926776 -0.3358444,0 -0.6547555,-0.07973 -0.9366249,-0.220839 0.3443111,0.686506 1.0530416,1.156053 1.8732499,1.156053 0.075847,0 0.1506361,-0.0039 0.2243667,-0.01094"
       style="fill:none;stroke:#ffffff;stroke-width:0.190853;stroke-linecap:round;stroke-linejoin:round;stroke-miterlimit:10;stroke-dasharray:none;stroke-opacity:1"
       id="path3530" />
    <path
       d="m 11.310122,8.8739541 c -0.141111,0 -0.276931,0.02328 -0.403225,0.06385 0,-0.02081 0.0025,-0.04198 0.0025,-0.06385 0,-0.589844 -0.478366,-1.067858 -1.068916,-1.067858 -0.1068917,0 -0.2120194,0.01587 -0.3104444,0.04551 C 9.4234667,6.8267851 8.5581028,6.0273903 7.5040028,6.0273903 c -1.1059583,0 -2.0044832,0.8815918 -2.0351749,1.9797888 -0.010936,0 -0.023283,-0.0011 -0.035631,-0.0011 -0.9584972,0 -1.7356666,0.777169 -1.7356666,1.735666 0,0.9588499 0.7771694,1.7370779 1.7356666,1.7370779 h 5.8769251 c 0.719667,0 1.303161,-0.583494 1.303161,-1.30175 0,-0.7196669 -0.583494,-1.3031609 -1.303161,-1.3031609 z"
       style="fill:none;stroke:#ffffff;stroke-width:0.190853;stroke-linecap:butt;stroke-linejoin:miter;stroke-miterlimit:10;stroke-dasharray:none;stroke-opacity:1"
       id="path3534" />
    <path
       d="m 12.437953,10.826756 c 0.665692,-0.0575 1.186744,-0.616656 1.186744,-1.2968109 0,-0.719667 -0.583494,-1.302103 -1.303161,-1.302103 -0.141111,0 -0.275872,0.02328 -0.403225,0.06385 0.0011,-0.02081 0.0035,-0.04163 0.0035,-0.06385 0,-0.589491 -0.478014,-1.068916 -1.068917,-1.068916 -0.10795,0 -0.212019,0.01729 -0.311502,0.04798 -0.1051,-1.0248221 -0.9718748,-1.8256277 -2.0249165,-1.8256277 -0.6226528,0 -1.1793361,0.2797528 -1.5532805,0.7196667"
       style="fill:none;stroke:#ffffff;stroke-width:0.190853;stroke-linecap:butt;stroke-linejoin:miter;stroke-miterlimit:10;stroke-dasharray:none;stroke-opacity:1"
       id="path3538" />
  </g>
</svg>
