<?xml version="1.0" encoding="UTF-8" standalone="no"?>
<svg
   xmlns:dc="http://purl.org/dc/elements/1.1/"
   xmlns:cc="http://creativecommons.org/ns#"
   xmlns:rdf="http://www.w3.org/1999/02/22-rdf-syntax-ns#"
   xmlns:svg="http://www.w3.org/2000/svg"
   xmlns="http://www.w3.org/2000/svg"
   xmlns:sodipodi="http://sodipodi.sourceforge.net/DTD/sodipodi-0.dtd"
   xmlns:inkscape="http://www.inkscape.org/namespaces/inkscape"
   width="16mm"
   height="16mm"
   viewBox="0 0 16 16"
   version="1.1"
   id="svg3297"
   inkscape:export-filename="/Users/michellelaybolt/Desktop/cloud.png"
   inkscape:export-xdpi="96"
   inkscape:export-ydpi="96"
   inkscape:version="1.0.2 (e86c8708, 2021-01-15)"
   sodipodi:docname="rainy.svg">
  <defs
     id="defs3291" />
  <sodipodi:namedview
     id="base"
     pagecolor="#747474"
     bordercolor="#ffffff"
     borderopacity="1"
     inkscape:pageopacity="0"
     inkscape:pageshadow="2"
     inkscape:zoom="2.8"
     inkscape:cx="57.447976"
     inkscape:cy="56.555118"
     inkscape:document-units="mm"
     inkscape:current-layer="layer1"
     inkscape:document-rotation="0"
     showgrid="false"
     inkscape:pagecheckerboard="true"
     inkscape:window-width="1252"
     inkscape:window-height="1014"
     inkscape:window-x="0"
     inkscape:window-y="25"
     inkscape:window-maximized="0" />
  <metadata
     id="metadata3294">
    <rdf:RDF>
      <cc:Work
         rdf:about="">
        <dc:format>image/svg+xml</dc:format>
        <dc:type
           rdf:resource="http://purl.org/dc/dcmitype/StillImage" />
        <dc:title></dc:title>
      </cc:Work>
    </rdf:RDF>
  </metadata>
  <g
     inkscape:label="Layer 1"
     inkscape:groupmode="layer"
     id="layer1">
    <path
       d="m 11.565391,6.707566 c -0.141111,0 -0.275872,0.02328 -0.403225,0.06385 0.0011,-0.02081 0.0025,-0.04198 0.0025,-0.06385 0,-0.590903 -0.478366,-1.068917 -1.068916,-1.068917 -0.1068918,0 -0.2123718,0.01693 -0.3104448,0.04763 -0.106539,-1.025877 -0.971902,-1.825272 -2.026355,-1.825272 -1.105606,0 -2.004131,0.880181 -2.034822,1.978731 h -0.03422 c -0.959908,0 -1.7370775,0.777169 -1.7370775,1.735666 0,0.95885 0.7771695,1.737078 1.7370775,1.737078 h 5.8755138 c 0.719667,0 1.30175,-0.583494 1.30175,-1.303161 0,-0.718256 -0.582083,-1.30175 -1.30175,-1.30175 z"
       style="fill:none;stroke:#ffffff;stroke-width:0.190853;stroke-linecap:butt;stroke-linejoin:miter;stroke-miterlimit:10;stroke-dasharray:none;stroke-opacity:1"
       id="path3542" />
    <path
       d="m 7.7333062,12.127114 c 0,0.302683 -0.246592,0.549275 -0.549275,0.549275 -0.302683,0 -0.549275,-0.246592 -0.549275,-0.549275 0,-0.302683 0.549275,-1.09855 0.549275,-1.09855 0,0 0.549275,0.795867 0.549275,1.09855"
       style="fill:#ffffff;fill-opacity:1;fill-rule:nonzero;stroke:none;stroke-width:0.352778"
       id="path3546" />
    <path
       d="m 10.186277,12.127114 c 0,0.302683 -0.2465918,0.549275 -0.5492748,0.549275 -0.302683,0 -0.549275,-0.246592 -0.549275,-0.549275 0,-0.302683 0.549275,-1.09855 0.549275,-1.09855 0,0 0.5492748,0.795867 0.5492748,1.09855"
       style="fill:#ffffff;fill-opacity:1;fill-rule:nonzero;stroke:none;stroke-width:0.352778"
       id="path3550" />
  </g>
</svg>
