<?xml version="1.0" encoding="UTF-8" standalone="no"?>
<svg
   xmlns:dc="http://purl.org/dc/elements/1.1/"
   xmlns:cc="http://creativecommons.org/ns#"
   xmlns:rdf="http://www.w3.org/1999/02/22-rdf-syntax-ns#"
   xmlns:svg="http://www.w3.org/2000/svg"
   xmlns="http://www.w3.org/2000/svg"
   xmlns:sodipodi="http://sodipodi.sourceforge.net/DTD/sodipodi-0.dtd"
   xmlns:inkscape="http://www.inkscape.org/namespaces/inkscape"
   width="16mm"
   height="16mm"
   viewBox="0 0 16 16"
   version="1.1"
   id="svg3297"
   inkscape:export-filename="/Users/michellelaybolt/Desktop/cloud.png"
   inkscape:export-xdpi="96"
   inkscape:export-ydpi="96"
   inkscape:version="1.0.2 (e86c8708, 2021-01-15)"
   sodipodi:docname="rain-day.svg">
  <defs
     id="defs3291" />
  <sodipodi:namedview
     id="base"
     pagecolor="#747474"
     bordercolor="#ffffff"
     borderopacity="1"
     inkscape:pageopacity="0"
     inkscape:pageshadow="2"
     inkscape:zoom="2.8"
     inkscape:cx="57.447976"
     inkscape:cy="62.787964"
     inkscape:document-units="mm"
     inkscape:current-layer="layer1"
     inkscape:document-rotation="0"
     showgrid="false"
     inkscape:pagecheckerboard="true"
     inkscape:window-width="1252"
     inkscape:window-height="1014"
     inkscape:window-x="0"
     inkscape:window-y="25"
     inkscape:window-maximized="0" />
  <metadata
     id="metadata3294">
    <rdf:RDF>
      <cc:Work
         rdf:about="">
        <dc:format>image/svg+xml</dc:format>
        <dc:type
           rdf:resource="http://purl.org/dc/dcmitype/StillImage" />
        <dc:title></dc:title>
      </cc:Work>
    </rdf:RDF>
  </metadata>
  <g
     inkscape:label="Layer 1"
     inkscape:groupmode="layer"
     id="layer1">
    <path
       d="m 11.110413,7.2846354 c -0.141111,0 -0.276931,0.02328 -0.404636,0.06385 0.0014,-0.02081 0.0039,-0.04198 0.0039,-0.06385 0,-0.590903 -0.478366,-1.068917 -1.0689164,-1.068917 -0.106892,0 -0.212372,0.01693 -0.311503,0.04763 -0.105481,-1.0258774 -0.972255,-1.8252718 -2.025297,-1.8252718 -1.105606,0 -2.005542,0.8801805 -2.034822,1.9787308 h -0.03563 c -0.958497,0 -1.735666,0.777169 -1.735666,1.735666 0,0.95885 0.777169,1.737078 1.735666,1.737078 h 5.8769254 c 0.718256,0 1.30175,-0.583494 1.30175,-1.303161 0,-0.718256 -0.583494,-1.30175 -1.30175,-1.30175 z"
       style="fill:none;stroke:#ffffff;stroke-width:0.190853;stroke-linecap:butt;stroke-linejoin:miter;stroke-miterlimit:10;stroke-dasharray:none;stroke-opacity:1"
       id="path3570" />
    <path
       d="m 8.7824656,5.0743766 c 0.210961,-0.2377722 0.478014,-0.4303889 0.793044,-0.5542139 1.0678594,-0.4205111 2.2729484,0.1044222 2.6934594,1.1708694 0.267052,0.6801553 0.152047,1.4171083 -0.243064,1.9699113"
       style="fill:none;stroke:#ffffff;stroke-width:0.190853;stroke-linecap:butt;stroke-linejoin:miter;stroke-miterlimit:10;stroke-dasharray:none;stroke-opacity:1"
       id="path3574" />
    <path
       d="M 9.3292376,3.8938406 8.9909236,3.034474"
       style="fill:none;stroke:#ffffff;stroke-width:0.190853;stroke-linecap:butt;stroke-linejoin:miter;stroke-miterlimit:10;stroke-dasharray:none;stroke-opacity:1"
       id="path3578" />
    <path
       d="m 13.057075,6.8592204 0.913342,0.136172"
       style="fill:none;stroke:#ffffff;stroke-width:0.190853;stroke-linecap:butt;stroke-linejoin:miter;stroke-miterlimit:10;stroke-dasharray:none;stroke-opacity:1"
       id="path3582" />
    <path
       d="M 12.049435,4.3008756 12.624463,3.5776812"
       style="fill:none;stroke:#ffffff;stroke-width:0.190853;stroke-linecap:butt;stroke-linejoin:miter;stroke-miterlimit:10;stroke-dasharray:none;stroke-opacity:1"
       id="path3586" />
    <path
       d="m 7.2770586,12.704183 c 0,0.302683 -0.245181,0.549275 -0.549275,0.549275 -0.302683,0 -0.547864,-0.246592 -0.547864,-0.549275 0,-0.302683 0.547864,-1.09855 0.547864,-1.09855 0,0 0.549275,0.795867 0.549275,1.09855"
       style="fill:#ffffff;fill-opacity:1;fill-rule:nonzero;stroke:none;stroke-width:0.352778"
       id="path3590" />
    <path
       d="m 9.7312986,12.704183 c 0,0.302683 -0.246592,0.549275 -0.550333,0.549275 -0.303036,0 -0.548217,-0.246592 -0.548217,-0.549275 0,-0.302683 0.548217,-1.09855 0.548217,-1.09855 0,0 0.550333,0.795867 0.550333,1.09855"
       style="fill:#ffffff;fill-opacity:1;fill-rule:nonzero;stroke:none;stroke-width:0.352778"
       id="path3594" />
  </g>
</svg>
