<?xml version="1.0" encoding="UTF-8" standalone="no"?>
<svg
   xmlns:dc="http://purl.org/dc/elements/1.1/"
   xmlns:cc="http://creativecommons.org/ns#"
   xmlns:rdf="http://www.w3.org/1999/02/22-rdf-syntax-ns#"
   xmlns:svg="http://www.w3.org/2000/svg"
   xmlns="http://www.w3.org/2000/svg"
   xmlns:sodipodi="http://sodipodi.sourceforge.net/DTD/sodipodi-0.dtd"
   xmlns:inkscape="http://www.inkscape.org/namespaces/inkscape"
   width="16mm"
   height="16mm"
   viewBox="0 0 16 16"
   version="1.1"
   id="svg3297"
   inkscape:export-filename="/Users/michellelaybolt/Desktop/cloud.png"
   inkscape:export-xdpi="96"
   inkscape:export-ydpi="96"
   inkscape:version="1.0.2 (e86c8708, 2021-01-15)"
   sodipodi:docname="rain-night.svg">
  <defs
     id="defs3291" />
  <sodipodi:namedview
     id="base"
     pagecolor="#747474"
     bordercolor="#ffffff"
     borderopacity="1"
     inkscape:pageopacity="0"
     inkscape:pageshadow="2"
     inkscape:zoom="2.8"
     inkscape:cx="57.447976"
     inkscape:cy="62.787964"
     inkscape:document-units="mm"
     inkscape:current-layer="layer1"
     inkscape:document-rotation="0"
     showgrid="false"
     inkscape:pagecheckerboard="true"
     inkscape:window-width="1252"
     inkscape:window-height="1014"
     inkscape:window-x="0"
     inkscape:window-y="25"
     inkscape:window-maximized="0" />
  <metadata
     id="metadata3294">
    <rdf:RDF>
      <cc:Work
         rdf:about="">
        <dc:format>image/svg+xml</dc:format>
        <dc:type
           rdf:resource="http://purl.org/dc/dcmitype/StillImage" />
        <dc:title></dc:title>
      </cc:Work>
    </rdf:RDF>
  </metadata>
  <g
     inkscape:label="Layer 1"
     inkscape:groupmode="layer"
     id="layer1">
    <path
       d="m 6.4201784,5.1902499 c 0.006,-0.061383 0.00847,-0.123825 0.00847,-0.1876778 0,-0.8198555 -0.4706056,-1.5285861 -1.1557,-1.8728972 0.1407583,0.2818695 0.2204861,0.6007806 0.2204861,0.9376834 0,1.1546416 -0.9376833,2.0926777 -2.0937361,2.0926777 -0.3372555,0 -0.6558138,-0.079728 -0.9366249,-0.2208389 0.3443111,0.6865055 1.0530416,1.1571111 1.8732499,1.1571111 0.074789,0 0.1495778,-0.00353 0.2229556,-0.011995"
       style="fill:none;stroke:#ffffff;stroke-width:0.190853;stroke-linecap:round;stroke-linejoin:round;stroke-miterlimit:10;stroke-dasharray:none;stroke-opacity:1"
       id="path3630" />
    <path
       d="m 11.722077,7.4286592 c -0.141111,0 -0.276931,0.023283 -0.404636,0.063853 0.0014,-0.020814 0.0039,-0.041628 0.0039,-0.063853 0,-0.5894917 -0.478367,-1.0689166 -1.068917,-1.0689166 -0.10795,0 -0.212372,0.017286 -0.3115024,0.046567 C 9.8354211,5.3814898 8.9686461,4.5820954 7.9156045,4.5820954 c -1.1056056,0 -2.0041305,0.8801805 -2.0348222,1.9797888 -0.012347,-0.00106 -0.023283,-0.00106 -0.034219,-0.00106 -0.9599083,0 -1.7370777,0.7771694 -1.7370777,1.7356666 0,0.95885 0.7771694,1.7360192 1.7370777,1.7360192 h 5.8755147 c 0.718256,0 1.30175,-0.5824359 1.30175,-1.3021025 0,-0.7182556 -0.583494,-1.30175 -1.30175,-1.30175 z"
       style="fill:none;stroke:#ffffff;stroke-width:0.190853;stroke-linecap:butt;stroke-linejoin:miter;stroke-miterlimit:10;stroke-dasharray:none;stroke-opacity:1"
       id="path3634" />
    <path
       d="m 7.8899918,12.848278 c 0,0.302683 -0.2462389,0.549275 -0.549275,0.549275 -0.3040944,0 -0.549275,-0.246592 -0.549275,-0.549275 0,-0.302683 0.549275,-1.09855 0.549275,-1.09855 0,0 0.549275,0.795867 0.549275,1.09855"
       style="fill:#ffffff;fill-opacity:1;fill-rule:nonzero;stroke:none;stroke-width:0.352778"
       id="path3638" />
    <path
       d="m 10.342962,12.848278 c 0,0.302683 -0.246238,0.549275 -0.5503329,0.549275 -0.3030361,0 -0.5478639,-0.246592 -0.5478639,-0.549275 0,-0.302683 0.5478639,-1.09855 0.5478639,-1.09855 0,0 0.5503329,0.795867 0.5503329,1.09855"
       style="fill:#ffffff;fill-opacity:1;fill-rule:nonzero;stroke:none;stroke-width:0.352778"
       id="path3642" />
  </g>
</svg>
