<?xml version="1.0" encoding="UTF-8" standalone="no"?>
<svg
   xmlns:dc="http://purl.org/dc/elements/1.1/"
   xmlns:cc="http://creativecommons.org/ns#"
   xmlns:rdf="http://www.w3.org/1999/02/22-rdf-syntax-ns#"
   xmlns:svg="http://www.w3.org/2000/svg"
   xmlns="http://www.w3.org/2000/svg"
   xmlns:sodipodi="http://sodipodi.sourceforge.net/DTD/sodipodi-0.dtd"
   xmlns:inkscape="http://www.inkscape.org/namespaces/inkscape"
   width="16mm"
   height="16mm"
   viewBox="0 0 16 16"
   version="1.1"
   id="svg3297"
   inkscape:export-filename="/Users/michellelaybolt/Desktop/cloud.png"
   inkscape:export-xdpi="96"
   inkscape:export-ydpi="96"
   inkscape:version="1.0.2 (e86c8708, 2021-01-15)"
   sodipodi:docname="thunderstorm-night.svg">
  <defs
     id="defs3291" />
  <sodipodi:namedview
     id="base"
     pagecolor="#747474"
     bordercolor="#ffffff"
     borderopacity="1"
     inkscape:pageopacity="0"
     inkscape:pageshadow="2"
     inkscape:zoom="2.8"
     inkscape:cx="57.447976"
     inkscape:cy="62.787964"
     inkscape:document-units="mm"
     inkscape:current-layer="layer1"
     inkscape:document-rotation="0"
     showgrid="false"
     inkscape:pagecheckerboard="true"
     inkscape:window-width="1252"
     inkscape:window-height="1014"
     inkscape:window-x="0"
     inkscape:window-y="25"
     inkscape:window-maximized="0" />
  <metadata
     id="metadata3294">
    <rdf:RDF>
      <cc:Work
         rdf:about="">
        <dc:format>image/svg+xml</dc:format>
        <dc:type
           rdf:resource="http://purl.org/dc/dcmitype/StillImage" />
        <dc:title></dc:title>
      </cc:Work>
    </rdf:RDF>
  </metadata>
  <g
     inkscape:label="Layer 1"
     inkscape:groupmode="layer"
     id="layer1">
    <path
       d="m 6.1979089,4.7749903 c 0.006,-0.061383 0.00847,-0.123825 0.00847,-0.1876778 0,-0.8187972 -0.4706056,-1.528586 -1.1571111,-1.8718388 0.1411111,0.2808111 0.2208389,0.5983111 0.2208389,0.936625 0,1.1546416 -0.936625,2.0926777 -2.0940889,2.0926777 -0.3358444,0 -0.6533444,-0.079728 -0.9352138,-0.2208389 0.3432527,0.6865055 1.0530416,1.1571111 1.8718388,1.1571111 0.0762,0 0.1509889,-0.00459 0.2243667,-0.011995"
       style="fill:none;stroke:#ffffff;stroke-width:0.190853;stroke-linecap:round;stroke-linejoin:round;stroke-miterlimit:10;stroke-dasharray:none;stroke-opacity:1"
       id="path4070" />
    <path
       d="m 11.498537,7.0133997 c -0.141111,0 -0.275872,0.023283 -0.403225,0.063853 0.0011,-0.020814 0.0025,-0.041628 0.0025,-0.063853 0,-0.5898444 -0.478013,-1.0678583 -1.067858,-1.0678583 -0.1079504,0 -0.2120194,0.015875 -0.3111504,0.045508 C 9.6118806,4.9662303 8.7465172,4.1657775 7.6924172,4.1657775 c -1.1045472,0 -2.0044832,0.8812389 -2.0351749,1.9808472 -0.010936,0 -0.021872,-0.00106 -0.034219,-0.00106 -0.9584972,0 -1.7360194,0.7771694 -1.7360194,1.7356666 0,0.95885 0.7775222,1.7370778 1.7360194,1.7370778 h 5.8755147 c 0.719667,0 1.303161,-0.5834945 1.303161,-1.3031611 0,-0.7193139 -0.583494,-1.30175 -1.303161,-1.30175 z"
       style="fill:none;stroke:#ffffff;stroke-width:0.190853;stroke-linecap:butt;stroke-linejoin:miter;stroke-miterlimit:10;stroke-dasharray:none;stroke-opacity:1"
       id="path4074" />
    <path
       d="m 12.626369,8.966202 c 0.665692,-0.058914 1.186744,-0.6166555 1.186744,-1.2968111 0,-0.7196666 -0.582436,-1.3021027 -1.302102,-1.3021027 -0.140759,0 -0.276931,0.023283 -0.403225,0.064911 0,-0.021872 0.0025,-0.042686 0.0025,-0.064911 0,-0.5894917 -0.478014,-1.0689167 -1.068917,-1.0689167 -0.106538,0 -0.212019,0.017286 -0.310091,0.047978 -0.106539,-1.0262305 -0.9733144,-1.825625 -2.0263561,-1.825625 -0.6215944,0 -1.1793361,0.2783417 -1.5518694,0.7196667"
       style="fill:none;stroke:#ffffff;stroke-width:0.190853;stroke-linecap:butt;stroke-linejoin:miter;stroke-miterlimit:10;stroke-dasharray:none;stroke-opacity:1"
       id="path4078" />
    <path
       d="m 8.0293547,11.330908 h 1.2968109 l -0.6113637,0.611716 1.0124727,-0.006 -3.2240365,2.253192 1.684161,-1.918759 H 7.0927297 Z"
       style="fill:#ffffff;fill-opacity:1;fill-rule:nonzero;stroke:none;stroke-width:0.352778"
       id="path4082" />
  </g>
</svg>
