<?xml version="1.0" encoding="UTF-8" standalone="no"?>
<svg
   xmlns:dc="http://purl.org/dc/elements/1.1/"
   xmlns:cc="http://creativecommons.org/ns#"
   xmlns:rdf="http://www.w3.org/1999/02/22-rdf-syntax-ns#"
   xmlns:svg="http://www.w3.org/2000/svg"
   xmlns="http://www.w3.org/2000/svg"
   xmlns:sodipodi="http://sodipodi.sourceforge.net/DTD/sodipodi-0.dtd"
   xmlns:inkscape="http://www.inkscape.org/namespaces/inkscape"
   width="16mm"
   height="16mm"
   viewBox="0 0 16 16"
   version="1.1"
   id="svg3297"
   inkscape:export-filename="/Users/michellelaybolt/Desktop/cloud.png"
   inkscape:export-xdpi="96"
   inkscape:export-ydpi="96"
   inkscape:version="1.0.2 (e86c8708, 2021-01-15)"
   sodipodi:docname="snow-night.svg">
  <defs
     id="defs3291" />
  <sodipodi:namedview
     id="base"
     pagecolor="#747474"
     bordercolor="#ffffff"
     borderopacity="1"
     inkscape:pageopacity="0"
     inkscape:pageshadow="2"
     inkscape:zoom="2.8"
     inkscape:cx="107.92042"
     inkscape:cy="83.50225"
     inkscape:document-units="mm"
     inkscape:current-layer="layer1"
     inkscape:document-rotation="0"
     showgrid="false"
     inkscape:pagecheckerboard="true"
     inkscape:window-width="1252"
     inkscape:window-height="1014"
     inkscape:window-x="0"
     inkscape:window-y="25"
     inkscape:window-maximized="0" />
  <metadata
     id="metadata3294">
    <rdf:RDF>
      <cc:Work
         rdf:about="">
        <dc:format>image/svg+xml</dc:format>
        <dc:type
           rdf:resource="http://purl.org/dc/dcmitype/StillImage" />
        <dc:title></dc:title>
      </cc:Work>
    </rdf:RDF>
  </metadata>
  <g
     inkscape:label="Layer 1"
     inkscape:groupmode="layer"
     id="layer1">
    <path
       d="m 11.081497,7.0575747 c -0.141111,0 -0.275872,0.02328 -0.404636,0.06385 0.0025,-0.02081 0.0049,-0.04163 0.0049,-0.06385 0,-0.589492 -0.479425,-1.068917 -1.0689168,-1.068917 -0.109008,0 -0.21343,0.01729 -0.31115,0.04657 -0.106892,-1.024819 -0.973666,-1.824214 -2.025297,-1.824214 -1.105606,0 -2.005542,0.880181 -2.036233,1.979789 -0.01094,-0.0011 -0.02328,-0.0011 -0.03422,-0.0011 -0.958497,0 -1.737077,0.777169 -1.737077,1.735666 0,0.9588504 0.77858,1.7360204 1.737077,1.7360204 h 5.8755138 c 0.719667,0 1.303161,-0.582436 1.303161,-1.302103 0,-0.7182564 -0.583494,-1.3017504 -1.303161,-1.3017504 z"
       style="fill:none;stroke:#ffffff;stroke-width:0.190853;stroke-linecap:butt;stroke-linejoin:miter;stroke-miterlimit:10;stroke-dasharray:none;stroke-opacity:1"
       id="path3682" />
    <path
       d="m 12.209292,9.0104491 c 0.665692,-0.05891 1.186744,-0.616656 1.186744,-1.2968114 0,-0.719667 -0.582436,-1.302103 -1.302102,-1.302103 -0.140759,0 -0.276931,0.02328 -0.404284,0.06385 0.0011,-0.01976 0.0035,-0.04163 0.0035,-0.06385 0,-0.589491 -0.478014,-1.068916 -1.067858,-1.068916 -0.109009,0 -0.213078,0.01729 -0.31115,0.04657 C 10.207603,4.3643697 9.3408282,3.564975 8.2877862,3.564975 c -0.621594,0 -1.179336,0.2783417 -1.55328,0.7186087"
       style="fill:none;stroke:#ffffff;stroke-width:0.190853;stroke-linecap:butt;stroke-linejoin:miter;stroke-miterlimit:10;stroke-dasharray:none;stroke-opacity:1"
       id="path3686" />
    <path
       d="m 6.7002782,11.378787 v 1.647472"
       style="fill:none;stroke:#ffffff;stroke-width:0.127353;stroke-linecap:butt;stroke-linejoin:miter;stroke-miterlimit:10;stroke-dasharray:none;stroke-opacity:1"
       id="path3690" />
    <path
       d="m 6.1179482,11.620299 1.164519,1.164519"
       style="fill:none;stroke:#ffffff;stroke-width:0.127353;stroke-linecap:butt;stroke-linejoin:miter;stroke-miterlimit:10;stroke-dasharray:none;stroke-opacity:1"
       id="path3694" />
    <path
       d="m 6.1179482,12.784852 1.164519,-1.164519"
       style="fill:none;stroke:#ffffff;stroke-width:0.127353;stroke-linecap:butt;stroke-linejoin:miter;stroke-miterlimit:10;stroke-dasharray:none;stroke-opacity:1"
       id="path3698" />
    <path
       d="M 7.5240502,12.202594 H 5.8765782"
       style="fill:none;stroke:#ffffff;stroke-width:0.127353;stroke-linecap:butt;stroke-linejoin:miter;stroke-miterlimit:10;stroke-dasharray:none;stroke-opacity:1"
       id="path3702" />
    <path
       d="m 9.1532142,11.378787 v 1.647472"
       style="fill:none;stroke:#ffffff;stroke-width:0.127353;stroke-linecap:butt;stroke-linejoin:miter;stroke-miterlimit:10;stroke-dasharray:none;stroke-opacity:1"
       id="path3706" />
    <path
       d="m 8.5708822,11.620299 1.164519,1.164519"
       style="fill:none;stroke:#ffffff;stroke-width:0.127353;stroke-linecap:butt;stroke-linejoin:miter;stroke-miterlimit:10;stroke-dasharray:none;stroke-opacity:1"
       id="path3710" />
    <path
       d="m 8.5708822,12.784852 1.164519,-1.164519"
       style="fill:none;stroke:#ffffff;stroke-width:0.127353;stroke-linecap:butt;stroke-linejoin:miter;stroke-miterlimit:10;stroke-dasharray:none;stroke-opacity:1"
       id="path3714" />
    <path
       d="M 9.9770212,12.202594 H 8.3295492"
       style="fill:none;stroke:#ffffff;stroke-width:0.127353;stroke-linecap:butt;stroke-linejoin:miter;stroke-miterlimit:10;stroke-dasharray:none;stroke-opacity:1"
       id="path3718" />
    <path
       style="fill:#ffffff;stroke-width:0.357143"
       d="m 47.378827,31.62725 c -0.01225,-2.792824 -2.56996,-5.446429 -5.249606,-5.446429 -0.937588,0 -1.202182,-0.170132 -1.382608,-0.889005 -0.348124,-1.387037 -2.458485,-3.039566 -3.881676,-3.039566 -1.047872,0 -1.239985,-0.140185 -1.439978,-1.050746 -0.599211,-2.728189 -4.252916,-5.672864 -7.1474,-5.76039 l -1.071429,-0.0324 1.428572,-0.676011 c 1.650599,-0.781075 3.138686,-0.866988 4.85742,-0.280438 2.396879,0.81798 4.400406,3.021005 4.777543,5.253261 0.215397,1.274918 0.260604,1.308527 1.589629,1.181784 1.834155,-0.174915 3.623842,1.327353 3.673409,3.083469 0.03293,1.166815 0.05166,1.17973 1.384232,0.954594 3.916787,-0.661736 6.585618,3.920793 4.043162,6.94233 -1.212684,1.441193 -1.574134,1.386229 -1.58127,-0.240455 z"
       id="path5260"
       transform="scale(0.26458333)" />
  </g>
</svg>
