<?xml version="1.0" encoding="UTF-8" standalone="no"?>
<svg
   xmlns:dc="http://purl.org/dc/elements/1.1/"
   xmlns:cc="http://creativecommons.org/ns#"
   xmlns:rdf="http://www.w3.org/1999/02/22-rdf-syntax-ns#"
   xmlns:svg="http://www.w3.org/2000/svg"
   xmlns="http://www.w3.org/2000/svg"
   xmlns:sodipodi="http://sodipodi.sourceforge.net/DTD/sodipodi-0.dtd"
   xmlns:inkscape="http://www.inkscape.org/namespaces/inkscape"
   width="16mm"
   height="16mm"
   viewBox="0 0 16 16"
   version="1.1"
   id="svg3297"
   inkscape:export-filename="/Users/michellelaybolt/Desktop/cloud.png"
   inkscape:export-xdpi="96"
   inkscape:export-ydpi="96"
   inkscape:version="1.0.2 (e86c8708, 2021-01-15)"
   sodipodi:docname="mist-day.svg">
  <defs
     id="defs3291" />
  <sodipodi:namedview
     id="base"
     pagecolor="#747474"
     bordercolor="#ffffff"
     borderopacity="1"
     inkscape:pageopacity="0"
     inkscape:pageshadow="2"
     inkscape:zoom="2.8"
     inkscape:cx="107.92042"
     inkscape:cy="83.50225"
     inkscape:document-units="mm"
     inkscape:current-layer="layer1"
     inkscape:document-rotation="0"
     showgrid="false"
     inkscape:pagecheckerboard="true"
     inkscape:window-width="1252"
     inkscape:window-height="1014"
     inkscape:window-x="0"
     inkscape:window-y="25"
     inkscape:window-maximized="0" />
  <metadata
     id="metadata3294">
    <rdf:RDF>
      <cc:Work
         rdf:about="">
        <dc:format>image/svg+xml</dc:format>
        <dc:type
           rdf:resource="http://purl.org/dc/dcmitype/StillImage" />
        <dc:title></dc:title>
      </cc:Work>
    </rdf:RDF>
  </metadata>
  <g
     inkscape:label="Layer 1"
     inkscape:groupmode="layer"
     id="layer1">
    <path
       d="m 11.281909,6.8072402 c -0.141111,0 -0.275872,0.023283 -0.403225,0.063853 0,-0.020814 0.0025,-0.041628 0.0025,-0.063853 0,-0.5898444 -0.478366,-1.0678583 -1.0689161,-1.0678583 -0.10795,0 -0.21202,0.015875 -0.310445,0.045508 C 9.3952529,4.7600708 8.5284789,3.959618 7.4757895,3.959618 c -1.1059583,0 -2.0044832,0.8812389 -2.0351749,1.9808472 -0.010936,0 -0.023283,-0.00106 -0.034219,-0.00106 -0.9599083,0 -1.7370777,0.7771694 -1.7370777,1.7356666 0,0.95885 0.7771694,1.7370778 1.7370777,1.7370778 H 11.28191 c 0.719667,0 1.30175,-0.5834945 1.30175,-1.3031611 0,-0.7193139 -0.582083,-1.30175 -1.30175,-1.30175 z"
       style="fill:none;stroke:#ffffff;stroke-width:0.190853;stroke-linecap:butt;stroke-linejoin:miter;stroke-miterlimit:10;stroke-dasharray:none;stroke-opacity:1"
       id="path4150" />
    <path
       d="m 7.534422,11.754843 c 0,0.350661 -0.2832805,0.633941 -0.6335889,0.633941 -0.3506611,0 -0.635,-0.28328 -0.635,-0.633941 0,-0.350661 0.2843389,-0.633942 0.635,-0.633942 0.3503084,0 0.6335889,0.283281 0.6335889,0.633942"
       style="fill:#ffffff;fill-opacity:1;fill-rule:nonzero;stroke:none;stroke-width:0.352778"
       id="path4154" />
    <path
       d="m 9.9873929,11.754843 c 0,0.350661 -0.283281,0.633941 -0.633589,0.633941 -0.350661,0 -0.633942,-0.28328 -0.633942,-0.633941 0,-0.350661 0.283281,-0.633942 0.633942,-0.633942 0.350308,0 0.633589,0.283281 0.633589,0.633942"
       style="fill:#ffffff;fill-opacity:1;fill-rule:nonzero;stroke:none;stroke-width:0.352778"
       id="path4158" />
  </g>
</svg>
