<?xml version="1.0" encoding="UTF-8" standalone="no"?>
<svg
   xmlns:dc="http://purl.org/dc/elements/1.1/"
   xmlns:cc="http://creativecommons.org/ns#"
   xmlns:rdf="http://www.w3.org/1999/02/22-rdf-syntax-ns#"
   xmlns:svg="http://www.w3.org/2000/svg"
   xmlns="http://www.w3.org/2000/svg"
   xmlns:sodipodi="http://sodipodi.sourceforge.net/DTD/sodipodi-0.dtd"
   xmlns:inkscape="http://www.inkscape.org/namespaces/inkscape"
   version="1.1"
   x="0px"
   y="0px"
   viewBox="0 0 13 21"
   xml:space="preserve"
   id="svg72"
   sodipodi:docname="geolocation-icon.svg"
   width="13"
   height="21"
   inkscape:version="1.0.2 (e86c8708, 2021-01-15)"><metadata
     id="metadata78"><rdf:RDF><cc:Work
         rdf:about=""><dc:format>image/svg+xml</dc:format><dc:type
           rdf:resource="http://purl.org/dc/dcmitype/StillImage" /><dc:title></dc:title></cc:Work></rdf:RDF></metadata><defs
     id="defs76" /><sodipodi:namedview
     pagecolor="#ffffff"
     bordercolor="#666666"
     borderopacity="1"
     objecttolerance="10"
     gridtolerance="10"
     guidetolerance="10"
     inkscape:pageopacity="0.69411765"
     inkscape:pageshadow="2"
     inkscape:window-width="1760"
     inkscape:window-height="967"
     id="namedview74"
     showgrid="false"
     inkscape:pagecheckerboard="true"
     inkscape:zoom="3"
     inkscape:cx="29.333333"
     inkscape:cy="76.890785"
     inkscape:window-x="0"
     inkscape:window-y="25"
     inkscape:window-maximized="0"
     inkscape:current-layer="svg72"
     inkscape:document-rotation="0" /><style
     type="text/css"
     id="style62">
	.st0{fill:none;stroke:#000000;stroke-width:3;stroke-miterlimit:10;}
	.st1{fill:#FFFFFF;}
	.st2{fill:none;stroke:#000000;stroke-width:2;stroke-linecap:round;stroke-linejoin:round;stroke-miterlimit:10;}
	.st3{fill:none;stroke:#000000;stroke-width:3;stroke-linecap:round;stroke-linejoin:round;stroke-miterlimit:10;}
	.st4{fill:none;stroke:#000000;stroke-width:2;stroke-miterlimit:10;}
	.st5{fill:none;stroke:#000000;stroke-miterlimit:10;}
	.st6{fill:none;stroke:#000000;stroke-linecap:round;stroke-linejoin:round;stroke-miterlimit:10;}
	.st7{fill:none;stroke:#231F20;stroke-width:7;stroke-miterlimit:10;}
	.st8{fill:none;stroke:#231F20;stroke-width:2;stroke-miterlimit:10;}
	.st9{fill:none;stroke:#FFFFFF;stroke-miterlimit:10;}
	.st10{fill:none;stroke:#FFFFFF;stroke-width:2;stroke-linecap:round;stroke-linejoin:round;stroke-miterlimit:10;}
	.st11{fill:none;stroke:#231F20;stroke-miterlimit:10;}
	.st12{fill:none;stroke:#FFFFFF;stroke-width:2;stroke-miterlimit:10;}
	.st13{fill:none;stroke:#FFFFFF;stroke-width:4;stroke-miterlimit:10;}
	.st14{fill:none;stroke:#FFFFFF;stroke-width:4;stroke-linecap:round;stroke-linejoin:round;stroke-miterlimit:10;}
	.st15{fill:none;stroke:#000000;stroke-width:4;stroke-miterlimit:10;}
	.st16{stroke:#FFFFFF;stroke-width:4;stroke-miterlimit:10;}
	.st17{fill:none;stroke:#000000;stroke-width:4;stroke-linecap:round;stroke-linejoin:round;stroke-miterlimit:10;}
	.st18{fill:none;stroke:#000000;stroke-width:6;stroke-linecap:round;stroke-linejoin:round;stroke-miterlimit:10;}
	.st19{stroke:#000000;stroke-width:2;stroke-miterlimit:10;}
	.st20{fill:none;stroke:#FFFFFF;stroke-width:3;stroke-miterlimit:10;}
</style><path
     d="M 11.32214,4.1350587 C 10.385945,2.5930146 8.836189,1.6401094 7.070058,1.5201397 c -0.264363,-0.017569 -0.537723,-0.017569 -0.801229,0 -1.7665587,0.1195411 -3.3163153,1.0728749 -4.2525103,2.614919 -0.9657591,1.591317 -1.0990116,3.55497 -0.3564826,5.252118 L 6.669444,20.839606 11.678623,9.3871767 C 12.421581,7.6900287 12.2879,5.7263757 11.32214,4.1350587 Z M 10.893675,9.0444057 6.669444,18.701568 2.4452117,9.0444057 C 1.8145119,7.6021937 1.928055,5.9333237 2.7494215,4.5802327 3.5386529,3.2798437 4.8424712,2.4764725 6.327529,2.3757827 c 0.113115,-0.00814 0.227086,-0.011568 0.342344,-0.011568 0.115256,0 0.229228,0.00387 0.342771,0.011568 1.48463,0.1002612 2.788447,0.903632 3.577679,2.20445 0.820509,1.353091 0.934052,3.021533 0.303352,4.464173 z"
     id="path64"
     style="fill:#000000;stroke-width:0.428465" /><path
     d="m 6.655473,5.4683917 c -1.012731,0 -1.837079,0.824348 -1.837079,1.83708 0,1.012731 0.824348,1.837078 1.837079,1.837078 1.012732,0 1.837079,-0.824347 1.837079,-1.837078 0,-1.012732 -0.824347,-1.83708 -1.837079,-1.83708 z m 0,3.006129 c -0.644648,0 -1.16905,-0.524402 -1.16905,-1.169049 0,-0.644648 0.524402,-1.169051 1.16905,-1.169051 0.644647,0 1.16905,0.524403 1.16905,1.169051 0,0.644647 -0.524403,1.169049 -1.16905,1.169049 z"
     id="path66"
     style="fill:#000000;stroke-width:0.334014" /></svg>
